<svg version="1.1" id="svg2" xml:space="preserve" width="4000" height="4000" viewBox="0 0 4000 4000" sodipodi:docname="медуза final (2).ai" xmlns:inkscape="http://www.inkscape.org/namespaces/inkscape" xmlns:sodipodi="http://sodipodi.sourceforge.net/DTD/sodipodi-0.dtd" xmlns="http://www.w3.org/2000/svg" xmlns:svg="http://www.w3.org/2000/svg"><defs id="defs6"><linearGradient x1="0" y1="0" x2="1" y2="0" gradientUnits="userSpaceOnUse" gradientTransform="matrix(0,1000.4927,1000.4927,0,1500.5195,808.83997)" spreadMethod="pad" id="linearGradient34"><stop style="stop-opacity:1;stop-color:#31eb91" offset="0" id="stop24"></stop><stop style="stop-opacity:1;stop-color:#31eb91" offset="0.00270201" id="stop26"></stop><stop style="stop-opacity:1;stop-color:#22c9b9" offset="0.72905" id="stop28"></stop><stop style="stop-opacity:1;stop-color:#22c9b9" offset="0.72929364" id="stop30"></stop><stop style="stop-opacity:1;stop-color:#14a7e0" offset="1" id="stop32"></stop></linearGradient><linearGradient x1="0" y1="0" x2="1" y2="0" gradientUnits="userSpaceOnUse" gradientTransform="matrix(0,799.26111,799.26111,0,1500,1615.6113)" spreadMethod="pad" id="linearGradient56"><stop style="stop-opacity:1;stop-color:#31ebc7" offset="0" id="stop50"></stop><stop style="stop-opacity:1;stop-color:#14a7e0" offset="0.37380383" id="stop52"></stop><stop style="stop-opacity:1;stop-color:#14a7e0" offset="1" id="stop54"></stop></linearGradient><linearGradient x1="0" y1="0" x2="1" y2="0" gradientUnits="userSpaceOnUse" gradientTransform="matrix(420.18173,0,0,-420.18173,963.42401,1006.7116)" spreadMethod="pad" id="linearGradient78"><stop style="stop-opacity:1;stop-color:#31eb91" offset="0" id="stop72"></stop><stop style="stop-opacity:1;stop-color:#31eb91" offset="0.00370621" id="stop74"></stop><stop style="stop-opacity:1;stop-color:#22c9b9" offset="1" id="stop76"></stop></linearGradient><linearGradient x1="0" y1="0" x2="1" y2="0" gradientUnits="userSpaceOnUse" gradientTransform="matrix(0,284.76553,284.76553,0,1826.5149,863.08521)" spreadMethod="pad" id="linearGradient100"><stop style="stop-opacity:1;stop-color:#31eb91" offset="0" id="stop94"></stop><stop style="stop-opacity:1;stop-color:#31eb91" offset="0.00370621" id="stop96"></stop><stop style="stop-opacity:1;stop-color:#22c9b9" offset="1" id="stop98"></stop></linearGradient><linearGradient x1="0" y1="0" x2="1" y2="0" gradientUnits="userSpaceOnUse" gradientTransform="matrix(124.08763,0,0,-124.08763,1500.6234,744.66479)" spreadMethod="pad" id="linearGradient122"><stop style="stop-opacity:1;stop-color:#31eb91" offset="0" id="stop116"></stop><stop style="stop-opacity:1;stop-color:#31eb91" offset="0.70333804" id="stop118"></stop><stop style="stop-opacity:1;stop-color:#22c9b9" offset="1" id="stop120"></stop></linearGradient><linearGradient x1="0" y1="0" x2="1" y2="0" gradientUnits="userSpaceOnUse" gradientTransform="matrix(0,317.85565,317.85565,0,1438.6807,585.12762)" spreadMethod="pad" id="linearGradient144"><stop style="stop-opacity:1;stop-color:#31eb91" offset="0" id="stop138"></stop><stop style="stop-opacity:1;stop-color:#31eb91" offset="0.70333804" id="stop140"></stop><stop style="stop-opacity:1;stop-color:#22c9b9" offset="1" id="stop142"></stop></linearGradient><linearGradient x1="0" y1="0" x2="1" y2="0" gradientUnits="userSpaceOnUse" gradientTransform="matrix(0,204.8848,204.8848,0,1360.1234,1919.0966)" spreadMethod="pad" id="linearGradient166"><stop style="stop-opacity:1;stop-color:#22c9b9" offset="0" id="stop160"></stop><stop style="stop-opacity:1;stop-color:#22c9b9" offset="0.00089919" id="stop162"></stop><stop style="stop-opacity:1;stop-color:#14a7e0" offset="1" id="stop164"></stop></linearGradient><linearGradient x1="0" y1="0" x2="1" y2="0" gradientUnits="userSpaceOnUse" gradientTransform="matrix(0,316.72949,316.72949,0,1116.4457,1446.2314)" spreadMethod="pad" id="linearGradient194"><stop style="stop-opacity:1;stop-color:#31eb91" offset="0" id="stop182"></stop><stop style="stop-opacity:1;stop-color:#31eb91" offset="0.0446927" id="stop184"></stop><stop style="stop-opacity:1;stop-color:#31eb91" offset="0.41180898" id="stop186"></stop><stop style="stop-opacity:1;stop-color:#22c9b9" offset="0.606145" id="stop188"></stop><stop style="stop-opacity:1;stop-color:#22c9b9" offset="0.60649915" id="stop190"></stop><stop style="stop-opacity:1;stop-color:#14a7e0" offset="1" id="stop192"></stop></linearGradient><linearGradient x1="0" y1="0" x2="1" y2="0" gradientUnits="userSpaceOnUse" gradientTransform="matrix(0,-296.48636,-296.48636,0,1062.167,1545.5696)" spreadMethod="pad" id="linearGradient220"><stop style="stop-opacity:1;stop-color:#31eb91" offset="0" id="stop210"></stop><stop style="stop-opacity:1;stop-color:#31eb91" offset="0.00187381" id="stop212"></stop><stop style="stop-opacity:1;stop-color:#22c9b9" offset="0.505587" id="stop214"></stop><stop style="stop-opacity:1;stop-color:#22c9b9" offset="0.50603157" id="stop216"></stop><stop style="stop-opacity:1;stop-color:#14a7e0" offset="1" id="stop218"></stop></linearGradient><linearGradient x1="0" y1="0" x2="1" y2="0" gradientUnits="userSpaceOnUse" gradientTransform="matrix(0,316.72949,316.72949,0,1881.9752,1455.097)" spreadMethod="pad" id="linearGradient248"><stop style="stop-opacity:1;stop-color:#31eb91" offset="0" id="stop236"></stop><stop style="stop-opacity:1;stop-color:#31eb91" offset="0.195531" id="stop238"></stop><stop style="stop-opacity:1;stop-color:#31eb91" offset="0.3748777" id="stop240"></stop><stop style="stop-opacity:1;stop-color:#22c9b9" offset="0.53352" id="stop242"></stop><stop style="stop-opacity:1;stop-color:#22c9b9" offset="0.53393945" id="stop244"></stop><stop style="stop-opacity:1;stop-color:#14a7e0" offset="1" id="stop246"></stop></linearGradient><linearGradient x1="0" y1="0" x2="1" y2="0" gradientUnits="userSpaceOnUse" gradientTransform="matrix(144.66272,0,0,-144.66272,1863.9225,1406.1919)" spreadMethod="pad" id="linearGradient276"><stop style="stop-opacity:1;stop-color:#31eb91" offset="0" id="stop264"></stop><stop style="stop-opacity:1;stop-color:#31eb91" offset="0.0614525" id="stop266"></stop><stop style="stop-opacity:1;stop-color:#31eb91" offset="0.26779453" id="stop268"></stop><stop style="stop-opacity:1;stop-color:#22c9b9" offset="0.505587" id="stop270"></stop><stop style="stop-opacity:1;stop-color:#22c9b9" offset="0.50603157" id="stop272"></stop><stop style="stop-opacity:1;stop-color:#14a7e0" offset="1" id="stop274"></stop></linearGradient><linearGradient x1="0" y1="0" x2="1" y2="0" gradientUnits="userSpaceOnUse" gradientTransform="matrix(0,161.1808,161.1808,0,1439.7838,1922.2413)" spreadMethod="pad" id="linearGradient298"><stop style="stop-opacity:1;stop-color:#22c9b9" offset="0" id="stop292"></stop><stop style="stop-opacity:1;stop-color:#22c9b9" offset="0.00089919" id="stop294"></stop><stop style="stop-opacity:1;stop-color:#14a7e0" offset="1" id="stop296"></stop></linearGradient><linearGradient x1="0" y1="0" x2="1" y2="0" gradientUnits="userSpaceOnUse" gradientTransform="matrix(0,161.1808,161.1808,0,1559.3691,1922.8785)" spreadMethod="pad" id="linearGradient320"><stop style="stop-opacity:1;stop-color:#22c9b9" offset="0" id="stop314"></stop><stop style="stop-opacity:1;stop-color:#22c9b9" offset="0.00089919" id="stop316"></stop><stop style="stop-opacity:1;stop-color:#14a7e0" offset="1" id="stop318"></stop></linearGradient><linearGradient x1="0" y1="0" x2="1" y2="0" gradientUnits="userSpaceOnUse" gradientTransform="matrix(0,204.8848,204.8848,0,1629.9762,1926.7433)" spreadMethod="pad" id="linearGradient342"><stop style="stop-opacity:1;stop-color:#22c9b9" offset="0" id="stop336"></stop><stop style="stop-opacity:1;stop-color:#22c9b9" offset="0.00089919" id="stop338"></stop><stop style="stop-opacity:1;stop-color:#14a7e0" offset="1" id="stop340"></stop></linearGradient></defs><sodipodi:namedview id="namedview4" pagecolor="#ffffff" bordercolor="#666666" borderopacity="1.0" inkscape:pageshadow="2" inkscape:pageopacity="0.0" inkscape:pagecheckerboard="0"></sodipodi:namedview><g id="g8" inkscape:groupmode="layer" inkscape:label="медуза final (2)" transform="matrix(1.3333333,0,0,-1.3333333,0,4000)"><g id="g12"><g id="g14"><g id="g20"><g id="g22"><path d="m 1570.088,1806.725 c -16.312,-9.366 -13.447,-32.615 -10.167,-50.809 v 0 c 16.582,-91.927 -4.707,-161.204 -48.3,-239.934 v 0 c -6.616,-11.948 -12.823,-17.106 -21.649,-1.138 v 0 c -43.507,78.702 -63.171,157.125 -56.921,243.838 v 0 c 4.621,19.452 4.487,36.591 -11.241,46.27 v 0 c -17.417,10.717 -29.296,-2.708 -33.43,-21.575 v 0 c -11.303,-51.566 -2.542,-99.237 5.122,-155.036 v 0 c 7.924,-57.684 31.926,-109.249 62.827,-158.078 v 0 c 9.08,-14.346 11.301,-25.464 -0.494,-39.61 v 0 c -21.816,-26.165 -42.439,-53.31 -62.621,-80.698 v 0 c -10.135,-13.752 -17.906,-12.664 -26.871,0.332 v 0 c -14.383,20.851 -37.173,45.646 -53.602,72.265 v 0 c -6.446,10.443 -20.257,40.403 -24.238,52.602 v 0 c -33.742,103.432 -35.644,138.746 -10.484,275.929 v 0 c 3.888,21.204 6.207,31.262 -18.031,41.013 v 0 c -17.637,7.098 -22.095,-15.023 -27.802,-35.462 v 0 c -37.544,-134.461 -9.742,-243.654 16.176,-318.625 v 0 c 17.809,-51.518 49.569,-86.794 82.328,-124.849 v 0 c 14.163,-16.453 12.78,-26.107 -0.113,-42.469 v 0 c -47.461,-60.229 -93.115,-121.827 -125.021,-191.739 v 0 c -7.068,-15.486 -12.022,-31.969 7.177,-41.263 v 0 c 20.701,-10.02 32.062,3.617 39.924,20.595 v 0 c 20.565,44.408 46.794,85.635 75.93,125.082 v 0 c 55.101,74.597 54.317,73.591 115.877,4.469 v 0 c 18.96,-21.29 20.291,-35.51 4.27,-59.373 v 0 c -58.207,-86.698 -89.696,-184.264 -115.14,-283.836 v 0 c -4.233,-16.562 0.128,-30.331 18.406,-34.636 v 0 c 18.368,-4.327 28.389,5.586 31.958,22.817 v 0 c 1.491,7.203 4.082,14.186 5.936,21.327 v 0 c 20.783,80.007 48.548,157.418 90.757,229.423 v 0 c 19.268,32.869 19.823,32.773 38.905,1.092 v 0 c 46.517,-77.222 74.622,-161.199 96.127,-247.548 v 0 c 4.229,-16.98 11.344,-31.899 32.029,-27.475 v 0 c 22.118,4.733 23.015,21.505 18.311,40.125 v 0 c -20.999,83.153 -48.998,163.668 -89.036,240.306 v 0 c -12.907,24.706 -45.497,46.576 -36.356,73.454 v 0 c 8.812,25.906 38.143,44.789 56.46,68.229 v 0 c 15.709,20.101 26.036,18.948 40.864,-1.286 v 0 c 40.914,-55.83 82.457,-111.133 111.682,-173.996 v 0 c 5.529,-11.893 12.284,-22.707 28.383,-21.779 v 0 c 9.389,0.541 16.575,4.5 20.802,12.911 v 0 c 6.561,13.056 0.889,24.652 -4.8,36.113 v 0 c -31.722,63.918 -71.141,123.343 -117.236,178.074 v 0 c -19.702,23.39 -18.072,37.458 0.936,61.209 v 0 c 54.871,68.567 99.098,114.933 106.94,231.957 v 0 c 3.741,55.84 7.485,132.541 -21.03,215.876 v 0 c -9.801,28.645 -24.951,40.781 -42.773,23.05 v 0 c -12.23,-12.169 -5.856,-21.012 -2.137,-37.235 v 0 c 21.029,-91.757 31.009,-167.114 13.187,-238.039 v 0 c -20.576,-81.885 -53.71,-110.239 -100.551,-172.465 v 0 c -9.145,-12.151 -16.094,-5.631 -22.645,2.833 v 0 c -20.204,26.101 -39.7,52.762 -60.874,78.099 v 0 c -12.831,15.35 -13.883,27.818 -2.224,44.923 v 0 c 20.992,30.8 36.888,64.468 48.854,99.671 v 0 c 25.209,74.16 25.519,133.115 9.837,209.359 v 0 c -4.238,13.652 -13.186,28.319 -25.257,28.318 v 0 c -2.822,-10e-4 -5.818,-0.803 -8.961,-2.608 m -82.756,-591.172 c -18.475,22.047 -38.443,42.959 -58.531,63.666 v 0 c -9.556,9.85 -12.835,17.882 -2.899,29.88 v 0 c 21.749,26.26 42.209,53.523 63.314,80.289 v 0 c 4.324,5.484 9.148,15.24 17.077,5.594 v 0 c 25.043,-30.462 49.069,-61.715 73.387,-92.737 v 0 c 1.246,-1.588 1.541,-3.881 2.279,-5.845 v 0 c 0.541,-7.219 -4.581,-11.373 -8.923,-16.083 v 0 c -19.519,-21.181 -39.329,-42.131 -58.187,-63.857 v 0 c -5.199,-5.99 -9.573,-9.635 -14.246,-9.635 v 0 c -3.978,10e-4 -8.172,2.643 -13.271,8.728" style="fill: url(&quot;#linearGradient34&quot;); opacity: 1;" id="path36" data-index="1"></path></g></g></g></g><g id="g38"><g id="g40"><g id="g46"><g id="g48"><path d="M 1085.934,2291.083 C 958.011,2201.674 886.336,2084.149 852.673,1950.829 v 0 c -17.117,-67.794 -19.55,-135.754 8.553,-202.469 v 0 c 34.914,-82.882 80.984,-131.389 186.124,-132.72 v 0 c 21.39,-0.27 42.248,0.948 45.632,22.17 v 0 c 2.996,18.769 -13.135,26.741 -33.594,29.869 v 0 c -3.916,0.599 -7.754,1.567 -11.586,2.481 v 0 c -26.371,6.286 -26.937,28.271 -25.155,49.393 v 0 c 1.663,19.722 17.884,31.972 38.381,45.959 v 0 c 22.684,15.479 48.461,26.559 76.227,34.744 v 0 c 129.837,38.279 265.031,44 410.479,44.488 v 0 c 45.137,-3.454 99.804,-5.641 153.665,-12.224 v 0 c 80.358,-9.822 160.453,-22.225 229.437,-60.949 v 0 c 25.383,-14.249 48.368,-29.008 48.959,-57.365 v 0 c 0.476,-22.812 -1.01,-36.29 -28.816,-42.191 v 0 c -22.227,-4.717 -48.454,-7.452 -40.689,-33.73 v 0 c 7.284,-24.651 33.698,-20.378 55.951,-18.909 v 0 c 129.53,8.554 178.128,78.196 191.109,191.751 v 0 c 14.822,129.654 -31.663,246.972 -113.429,355.906 v 0 c -121.089,161.324 -332.508,247.851 -546.285,247.839 v 0 c -145.382,-0.01 -291.879,-40.04 -411.702,-123.789 M 904.31,1848.534 c 1.463,195.57 153.789,466.488 515.161,509.453 v 0 c 237.658,28.256 476.345,-69.483 594.376,-251.442 v 0 c 59.597,-91.873 94.091,-188.969 79.393,-294.27 v 0 c -5.125,-36.712 -17.376,-71.708 -56.165,-102.562 v 0 c -7.223,86.494 -80.469,118.88 -161.876,142.032 v 0 c -144.328,41.047 -294.421,47.755 -445.616,42.717 v 0 c -101.31,-3.377 -201.564,-13.602 -297.939,-41.174 v 0 c -21.283,-6.088 -42.439,-13.017 -62.411,-21.502 v 0 c -58.314,-24.772 -102.503,-58.603 -103.722,-124.684 v 0 c -50.622,44.577 -61.565,92.855 -61.201,141.432" style="fill: url(&quot;#linearGradient56&quot;); opacity: 1;" id="path58" data-index="2"></path></g></g></g></g><g id="g60"><g id="g62"><g id="g68"><g id="g70"><path d="m 1344.709,1126.377 c -20.226,-55.869 -45.359,-107.015 -86.188,-143.539 v 0 c -8.694,-8.35 -16.733,-18.134 -26.189,-24.815 v 0 c -56.712,-40.067 -116.547,-58.774 -180.25,-30.58 v 0 c -36.452,16.132 -57.905,65.487 -43.038,95.835 v 0 c 20.008,40.844 44.7,34.777 70.013,5.876 v 0 c 7.868,-8.983 17.312,-8.751 25.252,0.837 v 0 c 10.249,12.376 4.939,24.598 -0.91,36.814 v 0 c -17.67,36.908 -68.474,49.205 -100.732,23.324 v 0 c -27.02,-21.678 -42.126,-51.724 -38.784,-93.365 v 0 c 4.077,-50.803 24.236,-87.833 61.287,-109.944 v 0 c 127.461,-76.069 330.474,51.38 356.833,223.895 v 0 c 2.089,13.668 4.312,28.413 -8.578,35.637 v 0 c -3.396,1.903 -6.414,2.742 -9.112,2.742 v 0 c -9.86,10e-4 -15.441,-11.218 -19.604,-22.717" style="fill:url(#linearGradient78);stroke:none" id="path80" data-index="3"></path></g></g></g></g><g id="g82"><g id="g84"><g id="g90"><g id="g92"><path d="m 1626.604,1145.108 c -12.89,-7.224 -10.666,-21.968 -8.578,-35.638 v 0 c 26.359,-172.514 229.373,-299.962 356.833,-223.893 v 0 c 37.052,22.111 57.211,59.14 61.287,109.944 v 0 c 3.342,41.64 -11.763,71.686 -38.783,93.365 v 0 c -32.259,25.881 -83.062,13.583 -100.734,-23.325 v 0 c -5.848,-12.215 -11.158,-24.437 -0.908,-36.814 v 0 c 7.939,-9.587 17.384,-9.819 25.253,-0.836 v 0 c 25.312,28.901 50.004,34.966 70.011,-5.875 v 0 c 14.868,-30.349 -6.585,-79.704 -43.037,-95.837 v 0 c -63.703,-28.193 -123.539,-9.487 -180.251,30.58 v 0 c -9.456,6.682 -17.495,16.465 -26.189,24.815 v 0 c -40.828,36.525 -65.961,87.671 -86.188,143.539 v 0 c -4.162,11.498 -9.744,22.717 -19.604,22.718 v 0 c -2.698,0 -5.715,-0.84 -9.112,-2.743" style="fill: url(&quot;#linearGradient100&quot;); opacity: 1;" id="path102" data-index="4"></path></g></g></g></g><g id="g104"><g id="g106"><g id="g112"><g id="g114"><path d="m 1511.079,883.711 c -32.477,-75.259 15.488,-253.527 78.163,-289.716 v 0 c 11.551,-6.743 23.863,-14.216 32.465,4.402 v 0 c 8.26,17.878 -2.065,28.412 -12.235,38.51 v 0 c -49.159,48.813 -68.874,112.956 -63.53,190.005 v 0 c 1.071,15.451 2.44,30.879 3.17,46.354 v 0 c 0.709,15.015 -2.935,27.945 -16.643,29.329 v 0 c -0.553,0.056 -1.097,0.083 -1.627,0.083 v 0 c -9.292,10e-4 -15.195,-8.379 -19.763,-18.967" style="fill:url(#linearGradient122);stroke:none" id="path124" data-index="5"></path></g></g></g></g><g id="g126"><g id="g128"><g id="g134"><g id="g136"><path d="m 1461.322,900.841 c -14.586,-7.788 -12.812,-24.444 -10.541,-40.172 v 0 c 13.052,-90.409 -0.508,-169.925 -60.885,-230.274 v 0 c -9.445,-9.44 -15.231,-21.798 -8.85,-35.406 v 0 c 7.026,-14.982 18.668,-9.87 29.112,-4.313 v 0 c 62.506,32.584 111.99,220.721 77.521,294.225 v 0 c -4.729,10.084 -10.559,18.082 -18.699,18.082 v 0 c -2.351,0 -4.893,-0.667 -7.658,-2.142" style="fill:url(#linearGradient144);stroke:none" id="path146" data-index="6"></path></g></g></g></g><g id="g148"><g id="g150"><g id="g156"><g id="g158"><path d="m 1414.831,2123.496 c -70.92,-28.589 -136.042,-128.642 -140.597,-187.245 v 0 c -0.802,-10.309 8.44,-18.261 24.164,-17.028 v 0 c 18.588,1.459 21.852,12.814 24.279,23.686 v 0 c 13.944,62.493 41.959,103.957 102.105,149.504 v 0 c 10.045,7.607 23.7,10.477 20.911,20.986 v 0 c -2.293,8.639 -10.952,10.582 -20.728,10.582 v 0 c -3.318,0 -6.763,-0.223 -10.134,-0.485" style="fill:url(#linearGradient166);stroke:none" id="path168" data-index="7"></path></g></g></g></g><g id="g170"><g id="g172"><g id="g178"><g id="g180"><path d="m 1148.685,1762.14 c -10.858,-4.259 -5.742,-21.279 -6.838,-37.631 v 0 c -6.566,-97.908 -27.534,-157.627 -74.988,-216.532 v 0 c -8.256,-10.248 -16.468,-21.756 -7.338,-43.217 v 0 c 7.723,-18.156 19.937,-22.776 28.605,-14.707 v 0 c 49.277,45.865 101.261,187.245 86.79,285.18 v 0 c -5.763,13.519 -12.445,27.73 -22.123,27.728 v 0 c -1.312,0 -2.681,-0.262 -4.108,-0.821" style="fill: url(&quot;#linearGradient194&quot;); opacity: 1;" id="path196" data-index="8"></path></g></g></g></g><g id="g198"><g id="g200"><g id="g206"><g id="g208"><path d="m 1099.633,1542.357 c -67.814,-52.94 -115.398,-199.244 -109.266,-275.409 v 0 c 1.078,-13.397 12.073,-21.468 28.052,-16.274 v 0 c 18.889,6.14 20.156,21.446 20.647,35.94 v 0 c 2.827,83.308 42.517,128.643 83.921,212.316 v 0 c 7.117,14.384 12.455,21.299 11.371,34.483 v 0 c -0.754,9.173 -8.035,12.156 -16.654,12.157 v 0 c -5.955,0 -12.547,-1.423 -18.071,-3.213" style="fill:url(#linearGradient220);stroke:none" id="path222" data-index="9"></path></g></g></g></g><g id="g224"><g id="g226"><g id="g232"><g id="g234"><path d="m 1823.504,1744.098 c -14.47,-97.935 37.513,-239.315 86.791,-285.18 v 0 c 8.668,-8.069 20.882,-3.448 28.606,14.707 v 0 c 9.129,21.462 0.917,32.97 -7.34,43.217 v 0 c -47.453,58.906 -68.421,118.624 -74.987,216.532 v 0 c -1.096,16.353 4.019,33.373 -6.837,37.631 v 0 c -1.428,0.559 -2.797,0.821 -4.109,0.821 v 0 c -9.679,0 -16.36,-14.209 -22.124,-27.728" style="fill:url(#linearGradient248);stroke:none" id="path250" data-index="10"></path></g></g></g></g><g id="g252"><g id="g254"><g id="g260"><g id="g262"><path d="m 1864.063,1542.279 c -1.085,-13.184 4.253,-20.1 11.371,-34.483 v 0 c 41.404,-83.673 81.094,-129.008 83.92,-212.316 v 0 c 0.492,-14.494 1.76,-29.799 20.648,-35.94 v 0 c 15.979,-5.195 26.973,2.876 28.052,16.273 v 0 c 6.133,76.165 -41.452,222.469 -109.266,275.41 v 0 c -5.524,1.789 -12.116,3.212 -18.071,3.212 v 0 c -8.619,0 -15.9,-2.983 -16.654,-12.156" style="fill: url(&quot;#linearGradient276&quot;); opacity: 1;" id="path278" data-index="11"></path></g></g></g></g><g id="g280"><g id="g282"><g id="g288"><g id="g290"><path d="m 1455.258,2074.154 c -36.818,-24.923 -64.256,-99.195 -62.307,-139.905 v 0 c 0.343,-7.162 15.976,-13.787 26.686,-11.575 v 0 c 12.662,2.616 21.016,9.832 21.743,17.523 v 0 c 4.173,44.2 3.922,78.999 41.348,115.549 v 0 c 6.252,6.104 3.964,17.651 1.133,24.639 v 0 c -0.881,2.175 -2.938,3.037 -5.608,3.037 v 0 c -6.775,0 -17.5,-5.547 -22.995,-9.268" style="fill:url(#linearGradient298);stroke:none" id="path300" data-index="12"></path></g></g></g></g><g id="g302"><g id="g304"><g id="g310"><g id="g312"><path d="m 1515.291,2081.022 c -2.83,-6.987 -5.118,-18.534 1.132,-24.639 v 0 c 37.428,-36.55 37.178,-71.348 41.349,-115.549 v 0 c 0.727,-7.691 9.082,-14.907 21.743,-17.522 v 0 c 10.71,-2.213 26.343,4.412 26.687,11.575 v 0 c 1.949,40.709 -25.489,114.982 -62.307,139.905 v 0 c -5.495,3.72 -16.22,9.267 -22.996,9.267 v 0 c -2.67,0 -4.727,-0.861 -5.608,-3.037" style="fill:url(#linearGradient320);stroke:none" id="path322" data-index="13"></path></g></g></g></g><g id="g324"><g id="g326"><g id="g332"><g id="g334"><path d="m 1544.407,2121.045 c -2.789,-10.508 10.865,-13.378 20.912,-20.986 v 0 c 60.145,-45.546 88.159,-87.01 102.104,-149.502 v 0 c 2.425,-10.873 5.691,-22.229 24.278,-23.688 v 0 c 15.725,-1.233 24.966,6.72 24.164,17.028 v 0 c -4.555,58.604 -69.677,158.657 -140.596,187.246 v 0 c -3.369,0.262 -6.815,0.485 -10.132,0.485 v 0 c -9.778,0 -18.438,-1.942 -20.73,-10.583" style="fill:url(#linearGradient342);stroke:none" id="path344" data-index="14"></path></g></g></g></g></g></svg>